<svg xmlns="http://www.w3.org/2000/svg" viewBox="0 0 280 340" role="img" aria-label="NOVA mark">
  <path
    d="M140 24C106 41 66 53 26 59v112c0 83 52 128 114 149 62-21 114-66 114-149V59c-40-6-80-18-114-35Z"
    fill="none"
    stroke="#02338D"
    stroke-linejoin="round"
    stroke-width="18"
  />
  <g
    fill="none"
    stroke="#CC9C4A"
    stroke-linecap="round"
    stroke-linejoin="round"
    stroke-width="10"
  >
    <path d="M92 94v118" />
    <path d="M184 94v118" />
    <path d="M92 94l54 38" />
    <path d="M146 132l38-38" />
    <path d="M92 212l54-80" />
    <path d="M146 132v80" />
    <path d="M92 94l92 118" />
    <path d="M92 212h18" />
  </g>
  <g fill="#CC9C4A">
    <circle cx="92" cy="94" r="11" />
    <circle cx="184" cy="94" r="11" />
    <circle cx="92" cy="212" r="11" />
    <circle cx="184" cy="212" r="11" />
    <circle cx="146" cy="132" r="11" />
  </g>
</svg>
