<svg xmlns="http://www.w3.org/2000/svg" width="960" height="540" viewBox="0 0 960 540"><defs><pattern id="grid" width="24" height="24" patternUnits="userSpaceOnUse"><path d="M24 0H0V24" fill="none" stroke="#597066" opacity=".25"/></pattern></defs><rect width="960" height="540" fill="#31463d"/><rect width="960" height="540" fill="url(#grid)"/><rect x="85" y="115" width="730" height="305" fill="#60716a" stroke="#a4b0a6" stroke-width="4"/><path d="M325 115V420M580 115V420M85 265H815" stroke="#73847a" stroke-width="2"/><rect x="92" y="112" width="220" height="100" rx="4" fill="#394e46"/><rect x="99" y="119" width="204" height="84" fill="#77938a"/><path d="M200 118V204" stroke="#bac6bc" stroke-width="3"/><rect x="650" y="155" width="100" height="190" rx="9" fill="#a5aa90"/><g transform="translate(252 217)"><circle cy="-14" r="8" fill="#919d98"/><path d="M-10 0Q0-8 10 0L13 27H-13Z" fill="#919d98"/><path d="M-7 25V45M7 25V45" stroke="#919d98" stroke-width="7" stroke-linecap="round"/></g><g transform="translate(365 249)"><circle cy="-14" r="8" fill="#b3b09a"/><path d="M-10 0Q0-8 10 0L13 27H-13Z" fill="#b3b09a"/><path d="M-7 25V45M7 25V45" stroke="#b3b09a" stroke-width="7" stroke-linecap="round"/></g><g transform="translate(469 272)"><circle cy="-14" r="8" fill="#b39479"/><path d="M-10 0Q0-8 10 0L13 27H-13Z" fill="#b39479"/><path d="M-7 25V45M7 25V45" stroke="#b39479" stroke-width="7" stroke-linecap="round"/></g><path d="M195 366H530" stroke="#d5b886" stroke-width="3" stroke-dasharray="12 8"/><rect x="199" y="154" width="324" height="205" fill="none" stroke="#e9b878" stroke-width="2" stroke-dasharray="9 5"/><rect x="199" y="130" width="148" height="24" rx="3" fill="#e9b878"/><text x="208" y="146" font-family="monospace" font-size="12" fill="#29362f">ACCESS EXCEPTION</text><rect width="960" height="65" fill="#17231e" opacity=".88"/><circle cx="31" cy="31" r="5" fill="#e7b47b"/><text x="48" y="38" fill="#e6ede4" font-family="monospace" font-size="16">STR-RB-03 / RESIDENCE LOBBY</text><text x="747" y="38" fill="#a6b6aa" font-family="monospace" font-size="13">28 FEB 2026 08:44:00</text><rect y="478" width="960" height="62" fill="#17231e" opacity=".9"/><text x="28" y="515" fill="#e7b47b" font-family="monospace" font-size="15">ILLUSTRATIVE SAMPLE</text><text x="580" y="515" fill="#9fac9f" font-family="monospace" font-size="13">NOVA / NO LIVE CAMERA CONNECTION</text></svg>